<svg width="158" height="55" viewBox="0 0 158 55" fill="none" xmlns="http://www.w3.org/2000/svg">
<path d="M46.6883 34.7652C46.3416 34.7652 46.0216 34.6319 45.7283 34.3652C45.4349 34.1252 45.2883 33.8319 45.2883 33.4852V20.5652C45.2883 19.8452 45.5149 19.2986 45.9683 18.9252C46.4216 18.5519 46.9283 18.3652 47.4883 18.3652H51.7283C52.6349 18.3652 53.4749 18.5519 54.2483 18.9252C55.0483 19.2719 55.6883 19.7919 56.1683 20.4852C56.6483 21.1786 56.8883 22.0319 56.8883 23.0452C56.8883 24.6186 56.3816 25.8719 55.3683 26.8052C54.3816 27.7386 53.1816 28.2052 51.7683 28.2052H49.0883C48.4216 28.2052 48.0883 28.6052 48.0883 29.4052V33.4852C48.0883 33.8319 47.9416 34.1252 47.6483 34.3652C47.3816 34.6319 47.0616 34.7652 46.6883 34.7652ZM48.8883 25.8052H51.3283C51.9949 25.8052 52.6349 25.6052 53.2483 25.2052C53.8883 24.8052 54.2083 24.1119 54.2083 23.1252C54.2083 22.3519 53.9149 21.7786 53.3283 21.4052C52.7683 21.0052 52.1549 20.8052 51.4883 20.8052H49.0083C48.3416 20.8052 48.0083 21.1252 48.0083 21.7652V24.7252C48.0083 25.4452 48.3016 25.8052 48.8883 25.8052ZM62.027 28.4452V33.5252C62.027 33.9252 61.8804 34.2319 61.587 34.4452C61.3204 34.6586 61.0137 34.7652 60.667 34.7652C60.3204 34.7652 60.0004 34.6586 59.707 34.4452C59.4404 34.2319 59.307 33.9252 59.307 33.5252V24.1252C59.307 23.6719 59.4404 23.3386 59.707 23.1252C60.0004 22.8852 60.3204 22.7652 60.667 22.7652C61.0137 22.7652 61.3204 22.8852 61.587 23.1252C61.8804 23.3386 62.027 23.6719 62.027 24.1252V24.2852C62.4004 23.7786 62.8804 23.3652 63.467 23.0452C64.0804 22.7252 64.7204 22.5652 65.387 22.5652C65.707 22.5652 66.027 22.6052 66.347 22.6852C66.667 22.7652 66.907 22.9252 67.067 23.1652C67.227 23.4052 67.307 23.6719 67.307 23.9652C67.307 24.3119 67.187 24.6319 66.947 24.9252C66.7337 25.1919 66.4137 25.3252 65.987 25.3252C65.8004 25.3252 65.6004 25.2986 65.387 25.2452C65.2004 25.1919 64.9604 25.1652 64.667 25.1652C63.8937 25.1652 63.2537 25.4586 62.747 26.0452C62.267 26.6319 62.027 27.4319 62.027 28.4452ZM70.5117 34.7652C70.1651 34.7652 69.8451 34.6586 69.5517 34.4452C69.2851 34.2319 69.1517 33.9252 69.1517 33.5252V23.9252C69.1517 23.4719 69.2851 23.1386 69.5517 22.9252C69.8451 22.6852 70.1651 22.5652 70.5117 22.5652C70.8584 22.5652 71.1651 22.6852 71.4317 22.9252C71.7251 23.1386 71.8717 23.4719 71.8717 23.9252V33.5252C71.8717 33.9252 71.7251 34.2319 71.4317 34.4452C71.1651 34.6586 70.8584 34.7652 70.5117 34.7652ZM70.5517 20.3652C70.0451 20.3652 69.6051 20.2052 69.2317 19.8852C68.8851 19.5386 68.7117 19.1252 68.7117 18.6452C68.7117 18.1919 68.8851 17.8052 69.2317 17.4852C69.6051 17.1386 70.0451 16.9652 70.5517 16.9652C71.0317 16.9652 71.4451 17.1386 71.7917 17.4852C72.1384 17.8052 72.3117 18.1919 72.3117 18.6452C72.3117 19.1252 72.1384 19.5386 71.7917 19.8852C71.4451 20.2052 71.0317 20.3652 70.5517 20.3652ZM85.1673 34.7652C84.8207 34.7652 84.5007 34.6586 84.2073 34.4452C83.9407 34.2319 83.8073 33.9252 83.8073 33.5252V28.4852C83.8073 27.3119 83.5407 26.4452 83.0073 25.8852C82.5007 25.3252 81.8207 25.0452 80.9673 25.0452C79.874 25.0452 79.074 25.4052 78.5673 26.1252C78.0873 26.8186 77.8473 27.5919 77.8473 28.4452V33.5252C77.8473 33.9252 77.7007 34.2319 77.4073 34.4452C77.1407 34.6586 76.834 34.7652 76.4873 34.7652C76.1407 34.7652 75.8207 34.6586 75.5273 34.4452C75.2607 34.2319 75.1273 33.9252 75.1273 33.5252V24.1252C75.1273 23.6719 75.2607 23.3386 75.5273 23.1252C75.8207 22.8852 76.1407 22.7652 76.4873 22.7652C76.834 22.7652 77.1407 22.8852 77.4073 23.1252C77.7007 23.3386 77.8473 23.6719 77.8473 24.1252C78.3007 23.6719 78.8873 23.2986 79.6073 23.0052C80.3273 22.7119 81.0073 22.5652 81.6473 22.5652C83.1407 22.5652 84.3273 23.0452 85.2073 24.0052C86.0873 24.9652 86.5273 26.3786 86.5273 28.2452V33.5252C86.5273 33.9252 86.3807 34.2319 86.0873 34.4452C85.794 34.6586 85.4873 34.7652 85.1673 34.7652ZM94.0614 34.7652C93.0214 34.7652 92.1681 34.4452 91.5014 33.8052C90.8347 33.1652 90.5014 32.2052 90.5014 30.9252V25.8452C90.5014 25.5786 90.3681 25.4452 90.1014 25.4452H89.3814C89.0347 25.4452 88.7414 25.3386 88.5014 25.1252C88.2614 24.8852 88.1414 24.5919 88.1414 24.2452C88.1414 23.8719 88.2614 23.5652 88.5014 23.3252C88.7414 23.0852 89.0347 22.9652 89.3814 22.9652H90.1014C90.3681 22.9652 90.5014 22.8319 90.5014 22.5652V19.2052C90.5014 18.8319 90.6214 18.5386 90.8614 18.3252C91.1281 18.0852 91.4481 17.9652 91.8214 17.9652C92.2214 17.9652 92.5414 18.0852 92.7814 18.3252C93.0481 18.5386 93.1814 18.8319 93.1814 19.2052V22.5652C93.1814 22.8319 93.3147 22.9652 93.5814 22.9652H95.7414C96.0614 22.9652 96.3414 23.0852 96.5814 23.3252C96.8214 23.5652 96.9414 23.8719 96.9414 24.2452C96.9414 24.5919 96.8214 24.8852 96.5814 25.1252C96.3681 25.3386 96.0747 25.4452 95.7014 25.4452H93.5814C93.3147 25.4452 93.1814 25.5786 93.1814 25.8452V30.5652C93.1814 31.6852 93.6347 32.2452 94.5414 32.2452C94.8081 32.2452 95.0881 32.2052 95.3814 32.1252C95.6747 32.0452 95.8747 32.0052 95.9814 32.0052C96.3547 32.0052 96.6347 32.1252 96.8214 32.3652C97.0347 32.6052 97.1414 32.8852 97.1414 33.2052C97.1414 33.4452 97.0747 33.6852 96.9414 33.9252C96.8081 34.1386 96.5947 34.2986 96.3014 34.4052C96.0081 34.5119 95.6347 34.5919 95.1814 34.6452C94.7547 34.7252 94.3814 34.7652 94.0614 34.7652ZM107.431 23.8852C107.431 23.5119 107.551 23.2052 107.791 22.9652C108.057 22.6986 108.391 22.5652 108.791 22.5652C109.164 22.5652 109.484 22.6986 109.751 22.9652C110.017 23.2052 110.151 23.5119 110.151 23.8852V29.5252C110.151 30.7252 109.884 31.7119 109.351 32.4852C108.817 33.2586 108.124 33.8319 107.271 34.2052C106.417 34.5786 105.511 34.7652 104.551 34.7652C103.591 34.7652 102.684 34.5786 101.831 34.2052C100.977 33.8319 100.284 33.2586 99.7508 32.4852C99.2174 31.7119 98.9508 30.7252 98.9508 29.5252V23.8852C98.9508 23.5119 99.0708 23.2052 99.3108 22.9652C99.5774 22.6986 99.9108 22.5652 100.311 22.5652C100.684 22.5652 101.004 22.6986 101.271 22.9652C101.537 23.2052 101.671 23.5119 101.671 23.8852V29.5252C101.671 30.5119 101.964 31.2186 102.551 31.6452C103.137 32.0719 103.804 32.2852 104.551 32.2852C105.324 32.2852 105.991 32.0719 106.551 31.6452C107.137 31.2186 107.431 30.5119 107.431 29.5252V23.8852ZM114.495 34.7652C114.148 34.7652 113.828 34.6586 113.535 34.4452C113.268 34.2319 113.135 33.9252 113.135 33.5252V24.1252C113.135 23.6719 113.268 23.3386 113.535 23.1252C113.828 22.8852 114.148 22.7652 114.495 22.7652C114.762 22.7652 115.015 22.8319 115.255 22.9652C115.495 23.0719 115.668 23.2719 115.775 23.5652C115.828 23.7252 115.855 23.8719 115.855 24.0052C116.255 23.5786 116.775 23.2319 117.415 22.9652C118.055 22.6986 118.682 22.5652 119.295 22.5652C121.028 22.5652 122.308 23.2586 123.135 24.6452C123.455 24.0852 123.975 23.6052 124.695 23.2052C125.442 22.7786 126.348 22.5652 127.415 22.5652C128.855 22.5652 130.002 23.0452 130.855 24.0052C131.708 24.9652 132.135 26.3786 132.135 28.2452V33.5252C132.135 33.9252 131.988 34.2319 131.695 34.4452C131.402 34.6586 131.095 34.7652 130.775 34.7652C130.428 34.7652 130.108 34.6586 129.815 34.4452C129.548 34.2319 129.415 33.9252 129.415 33.5252V28.4852C129.415 26.1919 128.562 25.0452 126.855 25.0452C125.895 25.0452 125.202 25.2986 124.775 25.8052C124.348 26.3119 124.082 26.9119 123.975 27.6052V33.5252C123.975 33.9252 123.828 34.2319 123.535 34.4452C123.242 34.6586 122.935 34.7652 122.615 34.7652C122.268 34.7652 121.948 34.6586 121.655 34.4452C121.388 34.2319 121.255 33.9252 121.255 33.5252V28.4852C121.255 27.3119 121.028 26.4452 120.575 25.8852C120.122 25.3252 119.508 25.0452 118.735 25.0452C117.588 25.0452 116.815 25.4052 116.415 26.1252C116.042 26.8186 115.855 27.5919 115.855 28.4452V33.5252C115.855 33.9252 115.708 34.2319 115.415 34.4452C115.148 34.6586 114.842 34.7652 114.495 34.7652ZM140.527 34.7652C139.354 34.7652 138.287 34.4986 137.327 33.9652C136.394 33.4319 135.661 32.6986 135.127 31.7652C134.594 30.8052 134.327 29.7386 134.327 28.5652C134.327 27.4186 134.594 26.3919 135.127 25.4852C135.661 24.5786 136.394 23.8719 137.327 23.3652C138.287 22.8319 139.354 22.5652 140.527 22.5652C141.701 22.5652 142.754 22.8319 143.687 23.3652C144.621 23.8719 145.354 24.5786 145.887 25.4852C146.447 26.3919 146.727 27.4186 146.727 28.5652C146.727 29.7386 146.447 30.8052 145.887 31.7652C145.354 32.6986 144.621 33.4319 143.687 33.9652C142.754 34.4986 141.701 34.7652 140.527 34.7652ZM140.527 32.2852C141.567 32.2852 142.407 31.9519 143.047 31.2852C143.687 30.5919 144.007 29.6852 144.007 28.5652C144.007 27.4986 143.687 26.6452 143.047 26.0052C142.407 25.3652 141.567 25.0452 140.527 25.0452C139.461 25.0452 138.607 25.3652 137.967 26.0052C137.354 26.6452 137.047 27.4986 137.047 28.5652C137.047 29.6852 137.354 30.5919 137.967 31.2852C138.607 31.9519 139.461 32.2852 140.527 32.2852Z" fill="black"/>
<path d="M7.55398 39.999C7.86557 39.999 8.11735 39.752 8.11735 39.4463V23.7984C8.11735 23.4941 8.36913 23.2457 8.68072 23.2457H14.857C15.4092 23.2157 16.5067 23.3371 17.308 23.5173C17.863 23.5937 18.827 24.0058 19.4585 24.4398C19.9162 24.6759 20.5992 25.4497 20.9845 26.1662C21.3698 26.884 21.5618 27.7875 21.5618 28.8752C21.6272 29.6135 21.3726 30.7994 20.9956 31.5255C20.7898 32.0482 20.1165 32.8424 19.4919 33.2996C19.1136 33.6435 18.151 34.0884 17.3414 34.2931C16.5318 34.4978 15.7027 34.6015 14.8556 34.6015H14.0947C13.7845 34.6015 13.5313 34.8486 13.5313 35.1543V39.4436C13.5313 39.7479 13.7831 39.9963 14.0947 39.9963H23.7541C24.0643 39.9963 24.4969 39.823 24.7181 39.6087L30.5994 33.9219C30.8206 33.7077 31 33.2873 31 32.9816V16.5517C31 16.246 30.7482 15.999 30.4366 15.999H14.4995C14.1879 15.999 13.7066 16.1014 13.4242 16.2283L5.51193 19.767C5.22955 19.8939 5.00002 20.2433 5.00002 20.549V39.4463C5.00002 39.7506 5.2518 39.999 5.5634 39.999H7.55398Z" fill="black" stroke="black" stroke-width="2" stroke-linecap="round" stroke-linejoin="round"/>
</svg>
